<svg version="1.1" id="Layer_1" xmlns="http://www.w3.org/2000/svg" xmlns:xlink="http://www.w3.org/1999/xlink" x="0px" y="0px"
	 width="100%" viewBox="0 0 512 512" enable-background="new 0 0 512 512" xml:space="preserve">
<path fill="#AE2538" opacity="1.000000" stroke="none" 
	d="
M481.000000,513.000000 
	C408.645782,513.000000 336.291534,513.000000 263.468658,512.531372 
	C262.910828,491.202972 262.821655,470.343231 262.800903,449.341156 
	C262.869293,449.198792 263.004028,448.913116 263.339478,448.852295 
	C285.782684,434.057709 307.931641,419.385254 329.980988,404.564636 
	C341.175598,397.040100 341.036713,384.997772 329.846558,377.308350 
	C326.698639,375.145233 323.509552,373.041504 320.322571,370.935883 
	C301.219177,358.314484 282.110901,345.700470 262.937378,332.942322 
	C262.870514,332.800690 262.734863,332.518341 262.809631,332.022186 
	C262.918976,311.076477 262.953552,290.626923 263.450928,270.102539 
	C288.758270,269.964478 313.602844,269.901245 338.951660,269.891693 
	C344.620178,269.963562 349.784424,269.993927 354.948639,269.998108 
	C399.262543,270.033936 443.576416,270.065002 487.932190,270.558350 
	C487.982727,344.325745 487.954803,417.632355 488.052307,490.938812 
	C488.062958,498.929657 488.854614,506.936981 480.860870,512.111328 
	C480.758423,512.177612 480.947174,512.693787 481.000000,513.000000 
z"/>
<path fill="#E63950" opacity="1.000000" stroke="none" 
	d="
M262.732483,449.483521 
	C262.821655,470.343231 262.910828,491.202972 263.000000,512.531372 
	C190.645767,513.000000 118.291542,513.000000 45.760674,512.713013 
	C38.540398,507.761841 37.857136,500.906952 37.879154,493.113312 
	C38.083622,420.734192 37.998730,348.354218 38.006924,275.974518 
	C38.007149,273.981232 38.109505,271.987976 38.621605,269.996521 
	C58.834301,269.927185 78.589622,269.856079 98.788498,269.843170 
	C139.025269,269.880554 178.818497,269.859741 219.106049,269.910858 
	C234.076340,269.928711 248.552261,269.874634 263.029938,269.911072 
	C263.031677,270.001617 262.988098,270.177368 262.988098,270.177368 
	C262.953552,290.626923 262.918976,311.076477 262.481628,331.884766 
	C255.560684,327.926910 249.024353,323.637421 242.530075,319.285156 
	C237.300064,315.780151 231.838028,314.692352 226.082703,317.783447 
	C220.191849,320.947327 217.954987,326.107483 217.966354,332.666504 
	C218.033615,371.455719 218.041550,410.245239 217.958344,449.034393 
	C217.944336,455.565216 219.979614,460.821381 225.824097,464.076202 
	C231.926727,467.474792 237.608612,466.084503 243.125381,462.330994 
	C249.584656,457.936157 256.190338,453.756500 262.732483,449.483521 
z"/>
<path fill="#000000" opacity="1.000000" stroke="none" 
	d="
M38.164238,269.994690 
	C38.109505,271.987976 38.007149,273.981232 38.006924,275.974518 
	C37.998730,348.354218 38.083622,420.734192 37.879154,493.113312 
	C37.857136,500.906952 38.540398,507.761841 45.292015,512.713013 
	C30.339821,513.000000 15.679642,513.000000 1.014597,513.000000 
	C1.009731,342.415314 1.009731,171.830627 1.009731,1.000000 
	C145.020798,1.000000 289.041748,1.000000 433.497742,1.365100 
	C431.572327,2.778913 429.288757,4.077674 426.837524,4.830894 
	C418.462799,7.404313 410.013641,9.734249 401.621155,12.251397 
	C384.029724,17.527590 366.436920,22.800716 348.881927,28.196384 
	C336.077271,32.132004 323.332245,36.261620 310.197327,40.209251 
	C294.222473,44.795666 278.610962,49.477585 262.618591,54.202496 
	C254.901321,56.501106 247.563644,58.752563 240.228790,61.013229 
	C225.127594,65.667542 210.027924,70.326805 194.537476,74.997147 
	C186.700012,77.198448 179.243530,79.356003 171.807236,81.580986 
	C154.544205,86.746162 137.264542,91.858124 120.042168,97.155991 
	C106.643814,101.277527 93.321762,105.647110 79.573708,109.952827 
	C66.939529,113.668762 54.785702,117.674644 42.431519,120.917145 
	C28.980709,124.447456 22.978409,131.778641 26.193434,143.247925 
	C29.665468,155.634048 33.956429,167.790619 37.940941,180.510559 
	C38.049225,210.647430 38.106731,240.321060 38.164238,269.994690 
z"/>
<path fill="#000000" opacity="1.000000" stroke="none" 
	d="
M481.468658,513.000000 
	C480.947174,512.693787 480.758423,512.177612 480.860870,512.111328 
	C488.854614,506.936981 488.062958,498.929657 488.052307,490.938812 
	C487.954803,417.632355 487.982727,344.325745 487.967773,270.084106 
	C487.974213,243.902466 488.002991,218.655869 487.989563,193.409302 
	C487.985687,186.129578 481.746155,180.017471 474.359680,180.007324 
	C458.582214,179.985657 442.804657,180.001831 426.556793,180.000580 
	C386.742249,180.012909 347.398102,180.027176 307.583496,180.004807 
	C292.392487,180.021912 277.671844,180.075638 262.487396,180.087372 
	C237.017136,180.039093 212.010712,180.032806 186.534180,180.014252 
	C181.981628,180.001328 177.894348,180.122711 173.818298,179.961243 
	C170.579239,179.832916 167.353912,179.358688 164.520569,179.020782 
	C167.507629,178.334961 170.154251,177.833618 172.674347,176.965118 
	C179.142044,174.736115 185.553558,172.344070 192.393204,170.010132 
	C194.875427,169.496857 196.974396,169.067642 199.024643,168.471024 
	C207.587402,165.979294 216.160217,163.517441 224.683273,160.894913 
	C237.462479,156.962799 250.203018,152.904953 263.349854,148.901184 
	C278.156342,144.600632 292.572998,140.299469 307.386597,136.002136 
	C317.423645,133.024170 327.042145,129.970200 336.708893,127.077431 
	C351.483795,122.656044 366.332275,118.477219 381.074127,113.949875 
	C394.526337,109.818604 407.878235,105.360870 421.656006,101.044525 
	C436.314545,96.746803 450.628052,92.568527 464.854553,88.112427 
	C473.371429,85.444717 477.572815,77.862885 475.214325,69.426704 
	C471.246033,55.232674 467.059601,41.098434 462.838348,26.976879 
	C460.993500,20.805117 459.140015,14.601456 456.689362,8.660216 
	C455.513489,5.809572 452.940338,3.535299 451.000000,0.999998 
	C471.651733,1.000000 492.303467,1.000000 512.956299,1.000002 
	C512.957458,171.666672 512.957458,342.333344 512.957458,513.000000 
	C502.589050,513.000000 492.263184,513.000000 481.468658,513.000000 
z"/>
<path fill="#351B33" opacity="1.000000" stroke="none" 
	d="
M450.532410,0.999998 
	C452.940338,3.535299 455.513489,5.809572 456.689362,8.660216 
	C459.140015,14.601456 460.993500,20.805117 462.838348,26.976879 
	C467.059601,41.098434 471.246033,55.232674 475.214325,69.426704 
	C477.572815,77.862885 473.371429,85.444717 464.854553,88.112427 
	C450.628052,92.568527 436.314545,96.746803 421.518372,100.710999 
	C385.928192,81.557480 350.852173,62.744465 315.800629,43.885986 
	C313.947968,42.889221 312.302521,41.507355 310.560638,40.304764 
	C323.332245,36.261620 336.077271,32.132004 348.881927,28.196384 
	C366.436920,22.800716 384.029724,17.527590 401.621155,12.251397 
	C410.013641,9.734249 418.462799,7.404313 426.837524,4.830894 
	C429.288757,4.077674 431.572327,2.778913 433.966370,1.365100 
	C439.354919,1.000000 444.709869,1.000000 450.532410,0.999998 
z"/>
<path fill="#D4E7FD" opacity="1.000000" stroke="none" 
	d="
M308.053925,180.041428 
	C347.398102,180.027176 386.742249,180.012909 426.614960,180.346176 
	C413.996948,193.896866 400.846222,207.095871 387.704956,220.304276 
	C371.281677,236.811478 354.866211,253.326431 338.447388,269.838043 
	C313.602844,269.901245 288.758270,269.964478 263.450928,270.102539 
	C262.988098,270.177368 263.031677,270.001617 263.024658,269.454163 
	C263.005737,254.399063 262.993805,239.891464 263.172119,225.163666 
	C263.565613,224.626007 263.768829,224.308517 264.274689,223.848404 
	C279.069550,209.150986 293.561737,194.596207 308.053925,180.041428 
z"/>
<path fill="#351B33" opacity="1.000000" stroke="none" 
	d="
M338.951660,269.891693 
	C354.866211,253.326431 371.281677,236.811478 387.704956,220.304276 
	C400.846222,207.095871 413.996948,193.896866 427.085327,180.348099 
	C442.804657,180.001831 458.582214,179.985657 474.359680,180.007324 
	C481.746155,180.017471 487.985687,186.129578 487.989563,193.409302 
	C488.002991,218.655869 487.974213,243.902466 487.925903,269.623291 
	C443.576416,270.065002 399.262543,270.033936 354.948639,269.998108 
	C349.784424,269.993927 344.620178,269.963562 338.951660,269.891693 
z"/>
<path fill="#EDF5FF" opacity="1.000000" stroke="none" 
	d="
M262.800903,449.341125 
	C256.190338,453.756500 249.584656,457.936157 243.125381,462.330994 
	C237.608612,466.084503 231.926727,467.474792 225.824097,464.076202 
	C219.979614,460.821381 217.944336,455.565216 217.958344,449.034393 
	C218.041550,410.245239 218.033615,371.455719 217.966354,332.666504 
	C217.954987,326.107483 220.191849,320.947327 226.082703,317.783447 
	C231.838028,314.692352 237.300064,315.780151 242.530075,319.285156 
	C249.024353,323.637421 255.560684,327.926910 262.406860,332.380920 
	C262.734863,332.518341 262.870514,332.800690 262.933868,333.404968 
	C262.999512,372.310547 263.001770,410.611816 263.004028,448.913116 
	C263.004028,448.913116 262.869293,449.198792 262.800903,449.341125 
z"/>
<path fill="#D5E7FD" opacity="1.000000" stroke="none" 
	d="
M263.339478,448.852295 
	C263.001770,410.611816 262.999512,372.310547 263.000732,333.546631 
	C282.110901,345.700470 301.219177,358.314484 320.322571,370.935883 
	C323.509552,373.041504 326.698639,375.145233 329.846558,377.308350 
	C341.036713,384.997772 341.175598,397.040100 329.980988,404.564636 
	C307.931641,419.385254 285.782684,434.057709 263.339478,448.852295 
z"/>
<path fill="#4C2847" opacity="1.000000" stroke="none" 
	d="
M263.972015,223.991028 
	C263.768829,224.308517 263.565613,224.626007 262.884399,225.287292 
	C247.808182,240.367020 233.209946,255.102951 218.611694,269.838928 
	C178.818497,269.859741 139.025269,269.880554 98.932129,269.584198 
	C127.488380,240.441010 156.348236,211.618683 185.180588,182.768875 
	C185.941406,182.007584 186.403107,180.947357 187.004288,180.026520 
	C212.010712,180.032806 237.017136,180.039093 262.502533,180.543518 
	C262.986145,193.628860 262.953613,206.216339 263.038757,218.803024 
	C263.050476,220.534378 263.646515,222.261795 263.972015,223.991028 
z"/>
<path fill="#EDF5FF" opacity="1.000000" stroke="none" 
	d="
M186.534180,180.014252 
	C186.403107,180.947357 185.941406,182.007584 185.180588,182.768875 
	C156.348236,211.618683 127.488380,240.441010 98.488571,269.525970 
	C78.589622,269.856079 58.834301,269.927185 38.621609,269.996521 
	C38.106731,240.321060 38.049225,210.647430 38.415848,180.496429 
	C78.319939,180.012482 117.799927,180.021881 157.279800,179.958389 
	C159.561172,179.954727 161.841614,179.358505 164.122482,179.038055 
	C167.353912,179.358688 170.579239,179.832916 173.818298,179.961243 
	C177.894348,180.122711 181.981628,180.001328 186.534180,180.014252 
z"/>
<path fill="#EAF1FB" opacity="1.000000" stroke="none" 
	d="
M219.106049,269.910828 
	C233.209946,255.102951 247.808182,240.367020 262.694153,225.507477 
	C262.993805,239.891464 263.005737,254.399063 263.022919,269.363617 
	C248.552261,269.874634 234.076340,269.928711 219.106049,269.910828 
z"/>
<path fill="#4B2746" opacity="1.000000" stroke="none" 
	d="
M262.959991,148.900574 
	C250.203018,152.904953 237.462479,156.962799 224.683273,160.894913 
	C216.160217,163.517441 207.587402,165.979294 199.024643,168.471024 
	C196.974396,169.067642 194.875427,169.496857 192.065750,169.889297 
	C154.210342,149.819168 117.088066,129.862808 79.965790,109.906448 
	C93.321762,105.647110 106.643814,101.277527 120.042168,97.155991 
	C137.264542,91.858124 154.544205,86.746162 171.807236,81.580986 
	C179.243530,79.356003 186.700012,77.198448 194.811295,75.212135 
	C217.646591,87.289925 239.817932,99.165840 262.121857,111.253738 
	C262.509369,111.680595 262.764282,111.895462 263.013275,112.571732 
	C262.991577,124.988945 262.975800,136.944763 262.959991,148.900574 
z"/>
<path fill="#B5DBFF" opacity="1.000000" stroke="none" 
	d="
M263.019196,112.110336 
	C262.764282,111.895462 262.509369,111.680595 262.401855,110.941711 
	C262.699890,108.613983 262.977936,106.810516 262.981415,105.006516 
	C263.014191,88.057564 263.000031,71.108521 262.999420,54.159508 
	C278.610962,49.477585 294.222473,44.795666 310.197327,40.209255 
	C312.302521,41.507355 313.947968,42.889221 315.800629,43.885986 
	C350.852173,62.744465 385.928192,81.557480 421.136719,100.713486 
	C407.878235,105.360870 394.526337,109.818604 381.074127,113.949875 
	C366.332275,118.477219 351.483795,122.656044 336.708893,127.077431 
	C327.042145,129.970200 317.423645,133.024170 307.159485,135.751923 
	C292.030029,127.702042 277.524597,119.906189 263.019196,112.110336 
z"/>
<path fill="#D5E8FE" opacity="1.000000" stroke="none" 
	d="
M79.573708,109.952820 
	C117.088066,129.862808 154.210342,149.819168 191.660080,169.896362 
	C185.553558,172.344070 179.142044,174.736115 172.674347,176.965118 
	C170.154251,177.833618 167.507629,178.334961 164.520569,179.020798 
	C161.841614,179.358505 159.561172,179.954727 157.279800,179.958389 
	C117.799927,180.021881 78.319939,180.012482 38.365074,180.033188 
	C33.956429,167.790619 29.665468,155.634048 26.193434,143.247925 
	C22.978409,131.778641 28.980709,124.447456 42.431519,120.917145 
	C54.785702,117.674644 66.939529,113.668762 79.573708,109.952820 
z"/>
<path fill="#D4E7FD" opacity="1.000000" stroke="none" 
	d="
M262.618591,54.202496 
	C263.000031,71.108521 263.014191,88.057564 262.981415,105.006516 
	C262.977936,106.810516 262.699890,108.613983 262.269226,110.729736 
	C239.817932,99.165840 217.646591,87.289925 195.201447,75.199020 
	C210.027924,70.326805 225.127594,65.667542 240.228790,61.013229 
	C247.563644,58.752563 254.901321,56.501106 262.618591,54.202496 
z"/>
<path fill="#371D35" opacity="1.000000" stroke="none" 
	d="
M264.274689,223.848389 
	C263.646515,222.261795 263.050476,220.534378 263.038757,218.803024 
	C262.953613,206.216339 262.986145,193.628860 262.966370,180.585495 
	C277.671844,180.075638 292.392487,180.021912 307.583496,180.004807 
	C293.561737,194.596207 279.069550,209.150986 264.274689,223.848389 
z"/>
<path fill="#361D35" opacity="1.000000" stroke="none" 
	d="
M263.013275,112.571732 
	C277.524597,119.906189 292.030029,127.702042 306.762543,135.748108 
	C292.572998,140.299469 278.156342,144.600632 263.349854,148.901184 
	C262.975800,136.944763 262.991577,124.988945 263.013275,112.571732 
z"/>
</svg>