<?xml version="1.0" encoding="UTF-8" standalone="no"?>
<!DOCTYPE svg PUBLIC "-//W3C//DTD SVG 1.1//EN" "http://www.w3.org/Graphics/SVG/1.1/DTD/svg11.dtd">
<svg width="100%" height="100%" viewBox="0 0 500 500" version="1.1" xmlns="http://www.w3.org/2000/svg" xmlns:xlink="http://www.w3.org/1999/xlink" xml:space="preserve" xmlns:serif="http://www.serif.com/" style="fill-rule:evenodd;clip-rule:evenodd;stroke-linecap:round;stroke-linejoin:round;stroke-miterlimit:1.5;">
    <g transform="matrix(1.018643,-0.585318,0.585318,1.018643,-110.077676,-125.541289)">
        <path d="M84,251.25L84,336.25C84,336.94 83.44,337.5 82.75,337.5L80.25,337.5C79.56,337.5 79,336.94 79,336.25L79,251.25C79,250.56 79.56,250 80.25,250L82.75,250C83.44,250 84,250.56 84,251.25Z" style="fill:none;stroke:rgb(249,158,27);stroke-width:24.83px;"/>
    </g>
    <g transform="matrix(1.174833,0,0,1.174833,154.200369,-252.020642)">
        <path d="M84,251.25L84,336.25C84,336.94 83.44,337.5 82.75,337.5L80.25,337.5C79.56,337.5 79,336.94 79,336.25L79,251.25C79,250.56 79.56,250 80.25,250L82.75,250C83.44,250 84,250.56 84,251.25Z" style="fill:none;stroke:rgb(249,158,27);stroke-width:24.83px;"/>
    </g>
    <g transform="matrix(1.017944,0.586534,-0.586534,1.017944,444.402051,-220.813586)">
        <path d="M84,251.25L84,336.25C84,336.94 83.44,337.5 82.75,337.5L80.25,337.5C79.56,337.5 79,336.94 79,336.25L79,251.25C79,250.56 79.56,250 80.25,250L82.75,250C83.44,250 84,250.56 84,251.25Z" style="fill:none;stroke:rgb(249,158,27);stroke-width:24.83px;"/>
    </g>
    <g transform="matrix(2.31201,0,0,2.31201,-377.710783,-490.59826)">
        <circle cx="271.5" cy="331.5" r="33.5" style="fill:none;stroke:rgb(249,158,27);stroke-width:16.67px;"/>
    </g>
    <g transform="matrix(2.65467,0,0,3.090391,-381.8114,-793.249439)">
        <path d="M250,376.154L250,393.846C250,396.691 247.311,399 244,399L232,399C228.689,399 226,396.691 226,393.846L226,376.154C226,373.309 228.689,371 232,371L244,371C247.311,371 250,373.309 250,376.154Z" style="fill:none;stroke:rgb(249,158,27);stroke-width:6.54px;"/>
    </g>
    <g transform="matrix(0.77067,0,0,0.495431,66.58052,260.635624)">
        <path d="M250,378L250,392C250,395.863 247.984,399 245.5,399L230.5,399C228.016,399 226,395.863 226,392L226,378C226,374.137 228.016,371 230.5,371L245.5,371C247.984,371 250,374.137 250,378Z" style="fill:none;stroke:rgb(249,158,27);stroke-width:29.74px;"/>
    </g>
    <g transform="matrix(2.31201,0,0,0.165144,-300.258439,335.282678)">
        <path d="M250,378L250,392C250,395.863 249.776,399 249.5,399L226.5,399C226.224,399 226,395.863 226,392L226,378C226,374.137 226.224,371 226.5,371L249.5,371C249.776,371 250,374.137 250,378Z" style="fill:rgb(249,158,27);stroke:rgb(249,158,27);stroke-width:5.88px;"/>
    </g>
</svg>
